# xmcd
#
# Track frame offsets:
#	150
#	16367
#	29102
#	42562
#	57654
#	72689
#	89309
#	101287
#	117924
#	132569
#	150639
#	165662
#	178259
#	188379
#	202492
#	215372
#	230382
#	243642
#	256744
#
# Disc length: 3607 seconds
#
# Revision: 1
# Processed by: cddbd v1.5.2PL0 Copyright (c) Steve Scherf et al.
# Submitted via: audiograbber 1.83.01
#
DISCID=1d0e1513
DTITLE=Merle Haggard - HT 1320
DYEAR=1900
DGENRE=Country
TTITLE0=Merle Haggard - Twinkle Twinkle Lucky Star 
TTITLE1=Merle Haggard - All My Friends Are Gonna Be Strangers
TTITLE2=Merle Haggard - Big City
TTITLE3=Merle Haggard - Silver Wings
TTITLE4=Merle Haggard - Branded Man
TTITLE5=Merle Haggard - Daddy Frank
TTITLE6=Merle Haggard - Every Fool Has a Rainbow
TTITLE7=Merle Haggard - Mamas Hungry Eyes
TTITLE8=Merle Haggard - I Threw Away The Rose
TTITLE9=Merle Haggard - I'll Stay Here and Drink
TTITLE10=Merle Haggard - I'm a Lonesome Fugitive
TTITLE11=Merle Haggard - Let's Chase Each Other
TTITLE12=Merle Haggard - Mama Tried
TTITLE13=Merle Haggard - Ramblin Fever
TTITLE14=Merle Haggard - Sing Me Back Home
TTITLE15=Merle Haggard - Someday When Things Are Better
TTITLE16=Merle Haggard - Swingin Doors
TTITLE17=Merle Haggard - Bottle Let Me Down
TTITLE18=Merle Haggard - Farmers Daughter
EXTD=
EXTT0=Merle Haggard
EXTT1=
EXTT2=
EXTT3=
EXTT4=
EXTT5=
EXTT6=
EXTT7=
EXTT8=
EXTT9=
EXTT10=
EXTT11=
EXTT12=
EXTT13=
EXTT14=
EXTT15=
EXTT16=
EXTT17=
EXTT18=
PLAYORDER=
